<?xml version="1.0" standalone="no"?>
<!DOCTYPE svg PUBLIC "-//W3C//DTD SVG 1.1//EN" "http://www.w3.org/Graphics/SVG/1.1/DTD/svg11.dtd" >
<svg xmlns="http://www.w3.org/2000/svg">
<metadata>
Created by FontForge 20120731 at Wed Nov 25 14:41:29 2015
 By Ads
</metadata>
<defs>
<font id="iconfont" horiz-adv-x="1024" >
  <font-face 
    font-family="iconfont"
    font-weight="500"
    font-stretch="normal"
    units-per-em="1024"
    panose-1="2 0 6 3 0 0 0 0 0 0"
    ascent="896"
    descent="-128"
    x-height="792"
    bbox="-0.326531 -224 1260 812.38"
    underline-thickness="50"
    underline-position="-100"
    unicode-range="U+0078-E636"
  />
<missing-glyph horiz-adv-x="374" 
d="M34 0v682h272v-682h-272zM68 34h204v614h-204v-614z" />
    <glyph glyph-name=".notdef" horiz-adv-x="374" 
d="M34 0v682h272v-682h-272zM68 34h204v614h-204v-614z" />
    <glyph glyph-name=".null" horiz-adv-x="0" 
 />
    <glyph glyph-name="nonmarkingreturn" horiz-adv-x="341" 
 />
    <glyph glyph-name="x" unicode="x" horiz-adv-x="1001" 
d="M281 543q-27 -1 -53 -1h-83q-18 0 -36.5 -6t-32.5 -18.5t-23 -32t-9 -45.5v-76h912v41q0 16 -0.5 30t-0.5 18q0 13 -5 29t-17 29.5t-31.5 22.5t-49.5 9h-133v-97h-438v97zM955 310v-52q0 -23 0.5 -52t0.5 -58t-10.5 -47.5t-26 -30t-33 -16t-31.5 -4.5q-14 -1 -29.5 -0.5
t-29.5 0.5h-32l-45 128h-439l-44 -128h-29h-34q-20 0 -45 1q-25 0 -41 9.5t-25.5 23t-13.5 29.5t-4 30v167h911zM163 247q-12 0 -21 -8.5t-9 -21.5t9 -21.5t21 -8.5q13 0 22 8.5t9 21.5t-9 21.5t-22 8.5zM316 123q-8 -26 -14 -48q-5 -19 -10.5 -37t-7.5 -25t-3 -15t1 -14.5
t9.5 -10.5t21.5 -4h37h67h81h80h64h36q23 0 34 12t2 38q-5 13 -9.5 30.5t-9.5 34.5q-5 19 -11 39h-368zM336 498v228q0 11 2.5 23t10 21.5t20.5 15.5t34 6h188q31 0 51.5 -14.5t20.5 -52.5v-227h-327z" />
    <glyph glyph-name="uniE600" unicode="&#xe600;" 
d="M862 23q-2 2 -7 6q-11 9 -17 14l-16 15q-11 10 -17.5 18t-15 19.5t-13.5 21.5t-8.5 22.5t-3.5 24.5v220q-1 36 -8 67t-19 57t-30 46.5t-40.5 36t-50 25.5t-60.5 15q20 17 20 45q0 15 -5.5 30t-15.5 27t-23.5 19.5t-28.5 7.5t-28.5 -7.5t-23 -19.5t-15.5 -27t-6 -30
q0 -28 20 -45q-65 -9 -110.5 -40t-70 -83.5t-27.5 -123.5v-220q0 -12 -3 -24t-7 -21.5t-12.5 -21t-13.5 -18t-16 -17t-15.5 -14t-16.5 -13.5t-14 -12q-7 -11 -6.5 -18.5t9 -11.5t17 -5t18.5 -1h18h293h21h292h18q24 0 38.5 8t-0.5 28zM492.5 -160q46.5 0 81.5 30t42 75h-247
q8 -45 42.5 -75t81 -30z" />
    <glyph glyph-name="uniE601" unicode="&#xe601;" 
d="M772 -147h-519q-24 0 -40.5 17t-16.5 41v694q0 23 16.5 40t40.5 17h144v-60h-115q-12 0 -20.5 -8.5t-8.5 -20.5v-634q0 -12 8.5 -20t20.5 -8h461q12 0 20.5 8t8.5 20v634q0 12 -8.5 20.5t-20.5 8.5h-115v60h144q15 0 28.5 -7.5t21 -21t7.5 -28.5v-694q0 -16 -7.5 -29.5
t-21 -21t-28.5 -7.5zM397 430h317v-29h-317v29zM397 343h317v-28h-317v28zM397 257h317v-28h-317v28zM397 171h317v-29h-317v29zM714 -30h-317v29h317v-29zM397 85h317v-29h-317v29zM311 430h29v-28h-29v28zM311 344h29v-29h-29v29zM311 258h29v-29h-29v29zM311 172h29v-29
h-29v29zM340 -30h-29v29h29v-29zM311 85h29v-28h-29v28zM685 572q12 0 20.5 -8.5t8.5 -20.5v-56h-403v56q0 12 8.5 20.5t20.5 8.5h86v12v31v44q0 24 11.5 44.5t31.5 32.5t43.5 12t44 -12.5t32 -33t11.5 -43.5q0 -22 -0.5 -44t-0.5 -33v-10h86zM512 662q-6 0 -11 -2t-9 -6
t-6 -9.5t-2 -11.5q0 -7 3.5 -14t10.5 -10.5t14 -3.5q12 0 20.5 8t8.5 20t-8.5 20.5t-20.5 8.5z" />
    <glyph glyph-name="uniE602" unicode="&#xe602;" 
d="M98 699h-34v-830h899v34l-864 1zM548 665q0 14 -10 24t-24 10h-104q-15 0 -25 -10t-10 -24v-692h173v692zM341 457q0 15 -10.5 25t-24.5 10h-104q-14 0 -24 -10t-10 -25v-484h173v484zM756 250q0 9 -5 17t-13 12.5t-17 4.5h-104q-14 0 -24 -10t-10 -24v-277h173v277z
M929 77h-104q-10 0 -18 -4.5t-12.5 -12.5t-4.5 -18v-69h173v69q0 10 -4.5 18t-12.5 12.5t-17 4.5z" />
    <glyph glyph-name="uniE603" unicode="&#xe603;" 
d="M319 388l8 30l-117 31l-8 -29zM174.5 82q-18.5 5 -34.5 -4.5t-21 -27.5t4.5 -34.5t27.5 -21.5t34.5 4.5t21 27.5t-4.5 34.5t-27.5 21.5zM589 75q-19 0 -32 -13t-13 -32t13 -32.5t32 -13.5t32.5 13.5t13.5 32.5t-13.5 32t-32.5 13zM650 500h-121v-31h121v31zM411 615
l-175 47q-12 3 -23 -3t-14 -18l-181 -674q-3 -12 3 -23t18 -14l176 -47q8 -2 16 0t13.5 7.5t7.5 13.5l181 674q1 5 1 9.5t-2 9t-5 8t-7 6.5t-9 4zM251 16.5q-10 -36.5 -42.5 -55.5t-69 -9t-55 42.5t-9.5 68.5q7 24 24 41t40.5 23.5t47.5 0.5q36 -10 55 -42.5t9 -69zM286 146
l-176 47l94 352l176 -47zM343 476l-117 32l-8 -30l117 -31zM923 439h-122v-30h122v30zM923 378h-122v-30h122v30zM923 500h-122v-31h122v31zM650 439h-121v-30h121v30zM953 651h-182q-12 0 -21 -8.5t-9 -21.5v-697q0 -13 9 -22t21 -9h182q6 0 11.5 2.5t10 6.5t6.5 9.5
t2 12.5v697q0 13 -8.5 21.5t-21.5 8.5zM862 -61q-38 0 -64.5 26.5t-26.5 64.5q0 24 12 45t33 33.5t46 12.5q38 0 64.5 -27t26.5 -64.5t-26.5 -64t-64.5 -26.5zM953 166h-182v364h182v-364zM680 651h-182q-12 0 -21 -8.5t-9 -21.5v-697q0 -7 2.5 -12.5t6.5 -9.5t9.5 -6.5
t11.5 -2.5h182q13 0 22 9t9 22v697q0 13 -9 21.5t-22 8.5zM589 -59q-37 0 -64 26.5t-27 64t27 64.5t64.5 27t64 -27t26.5 -64q0 -19 -7 -36t-19.5 -29t-29 -19t-35.5 -7zM680 166h-182v364h182v-364zM650 378h-121v-30h121v30zM862 75q-19 0 -32 -13t-13 -32t13 -32.5
t32 -13.5t32.5 13.5t13.5 32.5t-13.5 32t-32.5 13zM186 361l118 -31l7 29l-117 32z" />
    <glyph glyph-name="uniE604" unicode="&#xe604;" 
d="M274 332l-2 4l-1 4v3v3v4v4l1 4l1 5l2 5l2 5l2 5l4 6v4l1 3v5l2 6l2 6l1 3l1 2l2 3l2 2v4v4v6l1 7l1 8l2 10l3 10l2 6l2 6l3 5l2 7l3 6l3 6l4 7l5 7l2 4l2 3l5 7l5 7l6 7l6 7l6 7l7 7l9 8l5 4l6 6l7 4l7 4l7 4l8 3l8 4l8 3l8 3l9 2l9 2l9 2l9 2l9 1l10 1l9 1h10h9h10
l10 -2l10 -1l10 -1l9 -2l10 -2l9 -2l10 -3l9 -3l9 -4l9 -4l8 -4l9 -5l8 -5l7 -5l3 -3l3 -2l7 -5l5 -6l6 -5l5 -6l5 -6l5 -6l3 -7l4 -6l4 -6l3 -6l6 -13l2 -6l2 -6l3 -7l1 -6l2 -5l1 -6l3 -11l2 -10l2 -9l1 -8l1 -11l1 -2l1 -2l4 -6l2 -4l2 -4l3 -4l2 -6l1 -5l2 -6l1 -6l1 -3
v-4v-3v-4v-4l-1 -4l-2 -7l-2 -4l-1 -4v-1l1 -1l1 -4l9 -12l7 -10l3 -6l4 -7l4 -8l5 -8l4 -9l5 -10l3 -7l2 -6l2 -6l3 -6l1 -7l2 -5l2 -12l2 -11l1 -11v-5v-5v-4l-1 -5l-1 -9l-2 -8l-2 -7l-1 -3l-1 -4l-2 -2l-2 -3l-1 -2l-2 -3l-2 -2l-2 -1l-2 -1l-3 -1l-1 -1h-2h-1l-2 1
l-3 1l-1 1l-2 1l-2 2l-1 2l-3 3l-4 4l-2 5l-3 4l-2 4l-4 7l-4 8l-1 1l-2 -2l-1 -2l-2 -2l-2 -8l-5 -11l-5 -13l-4 -7l-4 -6l-5 -8l-6 -8l-2 -3l-4 -4l-7 -7v-1l1 -1l4 -2l16 -8l7 -4l7 -4l6 -4l6 -5l3 -2l2 -3l2 -3l2 -3l1 -3l1 -3l1 -3v-3v-2v-2l-1 -3l-1 -2l-1 -1l-1 -2
l-3 -4l-2 -3l-2 -3l-2 -2l-4 -3l-5 -3l-6 -2l-5 -3l-7 -2l-3 -1l-3 -1l-7 -2l-8 -1l-7 -2l-9 -1l-8 -1l-9 -1h-9h-9h-9l-10 1l-9 1l-10 1l-10 1l-10 1l-10 3l-10 2l-9 3l-10 3l-10 3l-5 2l-5 1l-3 1l-2 1h-4h-4l-10 1h-5l-6 1l-4 -4l-5 -3l-7 -4l-8 -4l-5 -2l-5 -2l-11 -5
l-6 -1l-7 -2l-8 -2h-6l-6 -1h-6l-7 -1h-7h-7h-15l-17 1l-16 1l-8 1l-7 2l-8 1l-8 1l-7 3l-7 1l-6 3l-6 2l-6 3l-4 3l-5 3l-2 2l-2 2l-2 2l-1 2l-2 2l-1 2l-1 5l-1 2v2v3v2v3l1 3v1v4v3l1 3l1 3l2 4l2 2l1 2l3 3l2 2l3 2l2 1l3 1l3 2l3 2l4 1l4 1l4 1h4l5 1h5l2 1h1v1l-1 1
l-3 2l-7 6l-5 4l-5 5l-6 5l-6 7l-6 8l-3 4l-3 4l-3 5l-3 6l-3 5l-2 6l-3 6l-3 7l-2 6l-2 8h-1v1h-1l-1 -1l-1 -1v-2l-1 -1l-1 -3l-3 -6l-2 -3l-3 -3l-2 -4l-4 -4l-3 -4l-4 -3l-3 -3l-4 -3l-5 -3l-4 -1l-5 -2h-5h-1h-1l-1 2l-1 1l-2 5l-1 2l-2 4l-1 4v3l-2 8v5v5v11v12l1 6
l1 7l1 6l2 7l2 7l2 7l3 7l3 7l4 7l3 8l4 7l5 7l5 7l5 8l5 5l5 7l6 6l3 3l3 3l5 4l5 5l8 7l6 4z" />
    <glyph glyph-name="uniE605" unicode="&#xe605;" 
d="M266 746v-269h-202v-627h202h67h627v896h-694zM266 -83h-135v493h135v-493zM893 -83h-560v560v202h560v-762zM400 343h426v-67h-426v67zM400 567h426v-134h-426v134zM400 209h426v-68h-426v68zM400 74h426v-67h-426v67z" />
    <glyph glyph-name="uniE606" unicode="&#xe606;" 
d="M1022 32v553h-92l-92 -181l-94 -5v233v2q0 1 -1 4l-2 6q-1 3 -3 7.5t-4.5 8t-6 7.5t-8 6.5t-11 4.5t-13.5 2h-646h-5q-3 0 -11.5 -2t-14.5 -6.5t-11 -14t-5 -23.5v-648q0 -2 0.5 -5t3 -11.5t7 -15t14 -11.5t21.5 -5h649h3q1 0 5.5 1t9 2.5t10 5t9 8.5t6.5 13t3 18v230h94
l95 -185z" />
    <glyph glyph-name="uniE607" unicode="&#xe607;" 
d="M931 607h-396q-9 0 -17 3.5t-14 9t-10 13t-5 16.5q0 2 -1 3v2v0q-3 35 -29.5 59t-62.5 24h-303q-19 0 -36 -7t-29.5 -19.5t-20 -30t-7.5 -36.5v-688q0 -39 27.5 -66t65.5 -27h838q38 0 65.5 27t27.5 66v558q0 39 -27.5 66t-65.5 27zM977 -44q0 -10 -3.5 -18.5t-9.5 -15
t-15 -10t-18 -3.5h-838q-13 0 -23.5 6.5t-16.5 17t-6 23.5v512h930v-512zM47 514v130q0 13 6 23.5t16.5 17t23.5 6.5h303q11 0 21.5 -5.5t17 -15t7.5 -21.5v-1v-2v-2q4 -35 30.5 -59t62.5 -24h396q19 0 32.5 -14t13.5 -33h-930z" />
    <glyph glyph-name="uniE608" unicode="&#xe608;" 
d="M457 286q-148 147 -108 186q3 3 9 8q16 17 23.5 25.5t15.5 25t5 31.5t-14 38t-34 51q-13 17 -26 28.5t-25.5 16t-22.5 6.5t-21.5 -2.5t-19.5 -8t-19 -13t-17 -15.5t-17 -17.5t-16 -15.5q-15 -16 -18.5 -47t8 -75.5t35.5 -94.5t67 -109t98.5 -114.5t114.5 -98.5t109 -67
t94.5 -35.5t75.5 -8t47 19.5q4 4 14 13.5t15.5 15t14.5 15t13 16.5t9 17t5.5 18.5t-1 19.5t-7.5 21.5t-16 22.5t-26 24q-79 64 -125 41q-15 -7 -54 -46q-40 -39 -186 108v0z" />
    <glyph glyph-name="uniE609" unicode="&#xe609;" 
d="M863 346h-47q-15 120 -100 201.5t-198.5 81.5t-199 -81.5t-99.5 -201.5h-48q-42 0 -71.5 -31.5t-29.5 -75.5v-118q0 -44 29.5 -75.5t71.5 -31.5h73q12 0 20 8q4 4 6 9t2 11v79v47v1v141q2 109 73.5 186t171.5 77t172 -77.5t73 -186.5v-136v-131q0 -3 0.5 -5.5t1.5 -5
t2.5 -5t3.5 -4.5t4.5 -3.5t5 -2.5t5 -1.5t5.5 -0.5h73q42 0 71.5 31.5t29.5 75.5v118q0 44 -29.5 75.5t-71.5 31.5zM171 70q-12 0 -22.5 7t-16.5 18.5t-6 25.5v118q0 10 3.5 19.5t9.5 16.5t14.5 11t17.5 4h45v-51v-169h-45zM909 121q0 -21 -13.5 -36t-32.5 -15h-45v220h45
q19 0 32.5 -15t13.5 -36v-118z" />
    <glyph glyph-name="uniE60A" unicode="&#xe60a;" 
d="M358 477q9 1 24.5 4t61.5 21t89.5 44t100.5 79t103 122q49 2 95 0v-592v-300q-8 2 -32 2t-43 -1l-20 -1q0 6 -0.5 16t-8 38t-20.5 54t-41 57.5t-66.5 54t-101 38t-139.5 15.5h-4q-3 0 -9.5 0.5t-12 3t-9.5 8.5t-4 15v300q-1 17 24 21zM257 491h-182l-7 -3q-5 -1 -18 -9.5
t-22.5 -20.5t-17.5 -34t-8 -50v-134q3 -5 -1.5 -30t15.5 -54.5t65 -29.5q49 -4 49 -46v-216q-1 -3 -2 -8t-2 -18t0 -23t7 -18t17 -8h107v75q1 61 0 66q2 119 0 150v75v336zM991 751q33 0 33 -33v-828q0 -11 -2.5 -19.5t-9 -14t-16.5 -5.5q-16 0 -26 11.5t-10 27.5v828
q0 33 31 33z" />
    <glyph glyph-name="uniE60B" unicode="&#xe60b;" 
d="M276 457h-162q-21 0 -36 -15t-15 -37v-220q0 -22 15 -37t36 -15h162l319 -260v844zM721 627q-12 5 -20.5 -4t-6 -21.5t15.5 -16.5q57 -20 101 -57.5t67.5 -83.5t33.5 -97.5t0 -103.5t-33.5 -98t-67.5 -83t-101 -57q-13 -4 -15.5 -16.5t6 -21.5t20.5 -5q47 17 86 43
t67 58.5t47.5 70.5t28.5 78.5t9 82.5t-9 82t-28.5 78.5t-47.5 70.5t-67 58.5t-86 42.5zM701 163q-5 -3 -8 -7.5t-3 -9.5t1.5 -9.5t5 -8t7.5 -5.5t9 -2t10 4q64 39 87.5 104.5t0 131t-87.5 104.5q-5 3 -10 3.5t-9 -1.5t-7.5 -5.5t-5 -8.5t-1.5 -9.5t3 -9t8 -7.5
q50 -31 68 -81.5t0 -101.5t-68 -81z" />
    <glyph glyph-name="uniE60C" unicode="&#xe60c;" 
d="M497 157h-232v-97h-121v242h121v72h-121h-73v-339v-48h194v-72h284q-62 73 -62 169q0 37 10 73zM265 447v-242h252q9 19 22 36t28 31.5t32.5 26.5t37 21.5t39.5 15.5v111h-169v49h169v242h-411v-242h169v-49h-169zM609 94q-3 0 -6 -1t-5 -3t-3.5 -5t-1.5 -6q0 -4 2 -8
t6 -6t8 -2q2 0 4.5 1t4.5 2.5t3.5 3.5t2 4t0.5 5q0 6 -4.5 10.5t-10.5 4.5zM749 302q-90 0 -154 -64t-64 -154q0 -59 29 -109.5t79.5 -79.5t109.5 -29q90 0 154 64t64 154q0 59 -29.5 109.5t-79.5 79.5t-109 29zM749 -103q-38 0 -72.5 15t-59.5 40t-40 59.5t-15 72.5
q0 72 47.5 125t118.5 61v-167q-10 -8 -10 -20q0 -11 7 -18.5t17 -7.5q3 0 5 1l66 -67l19 19l-65 68v2v3q0 4 -1 7.5t-3.5 7t-5.5 5.5v168q75 -4 127 -58t52 -129q0 -77 -55 -132t-132 -55zM743.5 -51q-6.5 0 -11 -4.5t-4.5 -10.5q0 -5 2 -8.5t5.5 -5.5t8.5 -2q3 0 6 1t5 3.5
t3 5t1 6.5q0 6 -4.5 10.5t-11 4.5zM899 94q-3 0 -6 -1t-5 -3t-3 -5t-1 -6t1 -6t3 -5t5 -3.5t6 -1.5t5.5 1t4 2.5t3 3.5t2.5 4t1 5q0 6 -4.5 10.5t-11.5 4.5z" />
    <glyph glyph-name="uniE60D" unicode="&#xe60d;" 
d="M58 -14q0 -30 22 -52t52 -22h760q20 0 37 10t27 27t10 37v512q0 20 -10 37t-27 27t-37 10h-378q-7 0 -13.5 2t-11.5 6t-9 9.5t-6 11.5t-2 13q0 30 -22 52t-52 22h-266q-30 0 -52 -22t-22 -52v-628z" />
    <glyph glyph-name="uniE60E" unicode="&#xe60e;" 
d="M512 701q-102 0 -188.5 -50t-137 -137t-50.5 -189t50.5 -188.5t137 -137t188.5 -50.5t188.5 50.5t137 137t50.5 188.5q0 77 -29.5 146.5t-80 120t-120 80t-146.5 29.5zM512 -10q-55 0 -106 17t-92 48t-72 72t-48 92.5t-17 105.5q0 91 45 168.5t122 122t168 44.5
t168 -44.5t122 -122t45 -168.5q0 -136 -95 -234q-104 -98 -240 -101zM465 479q-2 3 -5 4t-6 1q-2 0 -4.5 -0.5t-3.5 -1.5l-2 -2q-6 -6 -4 -13v-284q-2 -7 4 -13q10 -10 20 0l188 144q5 5 4 11q1 3 -0.5 5.5t-3.5 5.5zM484 244v162l105 -81zM828 177z" />
    <glyph glyph-name="uniE60F" unicode="&#xe60f;" 
d="M939 736h-596q-8 0 -20 -1h-1t-2 -1h-2h-5q-2 -1 -4.5 -1t-4.5 -1h-1h-3q-2 -1 -3.5 -1t-3 -0.5t-3.5 -0.5h-1q-1 -1 -2 -1q-5 -1 -11 -3h-2q-6 -2 -12.5 -4.5t-12.5 -4.5t-13 -5l-1 -1l-10 -5q-1 0 -2 -0.5t-1 -1.5q-5 -2 -9 -4l-2 -2h-1q-2 -1 -4 -2.5t-4 -2.5
t-3.5 -2.5t-3.5 -2.5t-4 -2.5t-3 -2.5l-8 -6l-3 -2l-8 -6q0 -1 -1 -1l-1 -1q-4 -4 -9 -8v-1h-1q-3 -3 -6.5 -7t-7 -7.5t-7 -7.5t-6.5 -8l-1 -1q-4 -4 -7 -9v-2h-1q-4 -5 -7 -9q0 -1 -1 -2v-1q-3 -4 -6 -9q-1 0 -1 -2q-3 -5 -6 -9l-1 -3q-1 -2 -2.5 -4.5t-2.5 -4.5
q0 -1 -0.5 -1.5t-0.5 -1.5l-5 -10v-1l-1 -1q-5 -12 -9 -25t-7 -27q-2 -6 -3 -13v-2q-1 -3 -1 -5.5t-1 -5.5v-2v-1v-2q-1 -3 -1 -4v-1v-1q-1 -10 -1 -18v-609h448v112h-316q-3 0 -5.5 1t-4.5 2t-4 3t-3.5 4.5t-2 5t-0.5 4.5v457v20q0 8 1 16.5t3 16.5v1q0 1 0.5 2.5t1 2.5
t0.5 3q1 4 2 7v1q2 4 3 7v1q1 4 3 7v1q2 3 3 7q1 0 1 1l3 6v1l4 7v0q2 3 4 7h1q2 4 4 7q9 12 19 22.5t21 18.5h1q3 3 6 5h1l6 4l1 1q3 1 6 3l1 1q3 1 6 3h1q2 1 3.5 1.5t2.5 1.5h1l1 1l6 2h2l6 2l1 1l7 1l1 1q3 0 7 1h1l7 1l1 1h1h7h1q2 0 4 0.5t4 0.5h484q8 0 14 -6t6 -15
v-261h112v393h-20zM478 357l-17 31q-15 26 -35.5 26t-34.5 -26l-175 -311q-6 -10 -0.5 -20.5t16.5 -10.5h124l186 200q5 5 2 11zM752 421.5q26 12.5 35 39t-3.5 52t-39.5 35t-52.5 -3t-35 -39.5t3 -52t39.5 -34.5t53 3zM485 46h140v-205h104q37 0 63 26t26 63v45v71h140
l-236 298z" />
    <glyph glyph-name="uniE610" unicode="&#xe610;" 
d="M492 85l-26 -39q-1 -2 -2 -4.5t-2.5 -9.5t-0.5 -13.5t7 -14t17 -12.5q28 -12 51 -27.5t38 -30t24 -25.5t17.5 -23.5t10.5 -15.5q11 -14 27.5 -13.5t24.5 17.5q7 13 25 56t36 78t48 82.5t75 95t101 89.5q-66 -24 -123 -61t-90 -72.5t-56.5 -67.5t-32.5 -52l-9 -19
q-2 3 -5.5 7.5t-14 17.5t-21.5 24t-26.5 23t-30.5 18q-13 5 -24 6t-17.5 -1t-11.5 -5t-7 -6zM456 -71q-45 21 -59 64q-15 44 8 86q1 1 1.5 2.5t1.5 3.5l27 38q12 19 35.5 32.5t54.5 13.5q4 0 7.5 -0.5t7.5 -0.5l8 -2q4 0 8 -1l8 -2q4 -1 8 -2.5t8 -3.5q31 -12 60 -37
q16 20 37 45q-10 5 -21 11l-20 10q-11 6 -22.5 10.5t-22.5 9.5l-22 8q-11 5 -22 8q-3 1 -6.5 3t-8.5 8t-7.5 14.5t-2 23t6.5 32.5q40 43 64.5 106.5t24.5 130.5q0 99 -53.5 154t-135.5 55t-135 -55t-53 -154q0 -67 24 -131t65 -106q6 -16 6.5 -30t-3 -22.5t-9.5 -15
t-10.5 -9t-7.5 -4.5q-147 -53 -209 -122q-29 -34 -29 -63v-28q0 -121 362 -121q15 0 29.5 0.5t29.5 1t30 1.5q-26 22 -63 38z" />
    <glyph glyph-name="uniE611" unicode="&#xe611;" 
d="M693 91l-34 -24q-8 -5 -17.5 -8.5t-18.5 -3.5q192 -83 263 -141h-376h-376q18 14 44 30t52.5 30.5t57 29.5t54.5 25.5t46.5 20.5t32.5 14t13 6q18 7 19.5 26t-15.5 29q-30 17 -54 45.5t-38.5 64t-17.5 71.5q0 12 -9 20.5t-21 8.5h-1q-10 0 -10 13q0 9 7 12
q10 5 14.5 15.5t1.5 21.5q-6 18 -9 36t-3 37q0 92 61.5 158t148.5 66h1h1h2h1q14 0 29 -3v22q0 10 2 20t7 19q-21 3 -38 3h-1h-2h-1h-1q-55 0 -105.5 -22.5t-86.5 -61t-57.5 -91t-21.5 -110.5q0 -18 2 -36t6 -35q-20 -22 -20 -51q0 -23 12.5 -42t32.5 -27q16 -103 92 -174
q-217 -94 -284 -159q-10 -9 -10 -22v-41q0 -12 9 -21t22 -9h411h412q12 0 21 9t9 21v41q0 4 -1 8t-3 7.5t-5 6.5q-61 59 -250 145zM673 539q7 21 26 34q9 8 20.5 11.5t23.5 3.5q8 0 17 -2q40 -9 53 -47l34 -96l36 -1v271q0 4 -1 8t-3 7.5t-5 6.5t-6.5 5t-7.5 3t-8 1h-218
q-13 0 -22 -9t-9 -22v-41v-230l36 1zM960 371q-2 9 -12 9l-65 1l-80 2l-21 59l-27 76q-3 9 -12 9q-4 0 -7.5 -2.5t-4.5 -6.5l-9 -26l-39 -109l-80 -2l-65 -1q-9 0 -12 -9q-1 -4 0 -8t4 -7l76 -56l25 -19l15 -11l-39 -129l-3 -9q-1 -4 0 -8t5 -6q1 -1 3 -2h2l2 -1h1l1 1h1h1
l4 2l94 64l25 18l119 -82l8 -3q4 0 7 3q8 5 5 14l-42 138l15 11l26 19l75 56q2 2 3.5 4.5t1.5 5t-1 5.5z" />
    <glyph glyph-name="uniE612" unicode="&#xe612;" 
d="M750 168v1v0v-1zM725 181v0v0zM602 431h1v0q2 -2 5 -3t7 -1h225q7 0 12.5 5t5.5 13t-6 13l-224 224q-6 6 -13 6q-8 0 -13 -4.5t-6 -11.5v-2v-225q0 -4 1.5 -7.5t4.5 -6.5v0zM642 604l132 -132h-132v132zM836 359q-10 0 -16.5 -6.5t-6.5 -15.5v-391q0 -4 -0.5 -6.5t-2 -4
t-4 -2.5t-7.5 -1h-574q-6 0 -9 1.5t-4 4.5t-1 8v683q0 9 2.5 12t11.5 3h288h1q6 0 11 3t8 8t3 11t-3 11t-8 8t-11 3h-1h-325q-9 0 -15.5 -6.5t-6.5 -15.5v-756q0 -9 6.5 -15.5t15.5 -6.5h648q4 0 8 1.5t7.5 4.5t5 7.5t1.5 8.5v426q0 10 -6.5 16.5t-15.5 6.5zM590 170
q-21 0 -35.5 -11t-14.5 -26.5t14.5 -26.5t35 -11t35.5 11t15 27v218q0 11 -7.5 18t-17.5 7l-147 -16q-7 0 -13 -3.5t-9 -9t-3 -12.5v-207q-6 3 -13.5 5t-15.5 2q-21 0 -35.5 -11t-14.5 -26.5t14.5 -26.5t35.5 -11q13 0 24.5 5t18.5 13.5t7 19.5v12h-1h1v188l154 15v-150
q-3 2 -6.5 3.5t-7.5 1.5l-6 2h-8z" />
    <glyph glyph-name="uniE613" unicode="&#xe613;" 
d="M849 805l-437 -134q-40 -11 -68 -47t-28 -76v-455v-7q-4 3 -11 5.5t-33.5 7.5t-58.5 -1q-77 -11 -132 -63t-55 -115q0 -62 54.5 -96.5t132.5 -23.5q51 7 92.5 33t64.5 63.5t23 78.5v395q0 16 11 29t23 18l11 5l387 122q1 0 4 1t10.5 1t13 -1.5t10 -8t4.5 -18.5v-316
q-1 1 -4 2.5t-14 5t-22.5 5t-30.5 3t-39 -1.5q-77 -9 -132 -60t-55 -114q0 -31 14.5 -56.5t40 -41.5t60 -23t72.5 -3q51 6 94.5 31.5t68.5 63.5t25 79v645q0 26 -13 44.5t-34.5 24.5t-48.5 -1z" />
    <glyph glyph-name="uniE614" unicode="&#xe614;" 
d="M952 624h-876q-11 0 -18.5 -7.5t-7.5 -18.5v-606q0 -6 3.5 -12t9.5 -9.5t13 -3.5h876q11 0 18.5 7.5t7.5 17.5v606q0 7 -3.5 13t-9.5 9.5t-13 3.5zM189 57q0 -5 -3.5 -9t-9.5 -4h-58q-3 0 -6 2t-4.5 4.5t-1.5 6.5v58q0 5 3.5 9t8.5 4h58q3 0 4.5 -1t3.5 -2t3 -2.5
t1.5 -3.5t0.5 -4v-58zM189 199q0 -4 -1.5 -7t-4.5 -4.5t-7 -1.5h-58q-5 0 -8.5 3.5t-3.5 9.5v58q0 5 3.5 9t8.5 4h58q13 0 13 -13v-58zM189 334q0 -5 -3.5 -9t-9.5 -4h-58q-3 0 -6 2t-4.5 4.5t-1.5 6.5v58q0 5 3.5 9t8.5 4h58q6 0 9.5 -4t3.5 -9v-58zM189 476q0 -2 -0.5 -4
t-1.5 -3.5t-3 -3t-3.5 -2t-4.5 -0.5h-58q-3 0 -6 1.5t-4.5 4.5t-1.5 7v58q0 5 3.5 9t8.5 4h58q6 0 9.5 -4t3.5 -9v-58zM778 53q0 -11 -7.5 -18.5t-18.5 -7.5h-476q-11 0 -18.5 7.5t-7.5 18.5v486q0 10 7.5 17.5t18.5 7.5h476q11 0 18.5 -7.5t7.5 -17.5v-486zM922 57
q0 -5 -3.5 -9t-9.5 -4h-58q-5 0 -9 4t-4 9v58q0 5 4 9t9 4h58q3 0 5.5 -1t4 -3t2.5 -4t1 -5v-58zM922 199q0 -6 -3.5 -9.5t-9.5 -3.5h-58q-3 0 -6 1.5t-5 4.5t-2 7v58q0 5 4 9t9 4h58q4 0 7 -2t4.5 -5t1.5 -6v-58zM922 334q0 -5 -3.5 -9t-9.5 -4h-58q-3 0 -6 2t-5 4.5
t-2 6.5v58q0 5 4 9t9 4h58q6 0 9.5 -4t3.5 -9v-58zM922 476q0 -6 -3.5 -9.5t-9.5 -3.5h-58q-5 0 -9 3.5t-4 9.5v58q0 5 4 9t9 4h58q4 0 7 -2t4.5 -5t1.5 -6v-58zM411 176l238 119l-238 119v-238z" />
    <glyph glyph-name="uniE615" unicode="&#xe615;" horiz-adv-x="1055" 
d="M1055 408zM866 681q0 6 -2.5 12t-7 10.5t-10.5 7t-12 2.5h-735q-7 0 -13 -2.5t-10 -7t-6.5 -10.5t-2.5 -12v-576q0 -13 9 -22.5t23 -9.5h27q13 0 22.5 9.5t9.5 22.5v483q0 6 2.5 12t7 10.5t10.5 7t12 2.5h644q9 0 16 4.5t11.5 11.5t4.5 16v29zM925 558h-671
q-16 0 -27 -10.5t-11 -26.5v-597q0 -7 3 -14t8 -12t12 -8t15 -3h671q15 0 26 11t11 26v597q0 16 -11 26.5t-26 10.5zM850 -1h-522v186l112 112l187 -186l112 112l111 -112v-112zM776 297q-20 0 -37.5 10t-27.5 27.5t-10 37.5q0 31 22 52.5t53 21.5t52.5 -21.5t21.5 -52.5
t-21.5 -53t-52.5 -22zM776 297z" />
    <glyph glyph-name="uniE616" unicode="&#xe616;" horiz-adv-x="1025" 
d="M979 30q-22 20 -38.5 51.5t-25 60t-14 57.5t-7 42.5t-1.5 17.5q-2 89 -27.5 163.5t-59.5 122t-81 84.5t-83 55t-75 31l1 1v1q0 29 -17.5 49.5t-42.5 20.5t-42.5 -20.5t-17.5 -48.5q-37 -12 -73.5 -29.5t-82 -54.5t-79.5 -84.5t-58.5 -123.5t-26.5 -167q-1 -7 -2 -18
t-6.5 -42t-14.5 -58.5t-26 -60t-39 -52.5q-1 -1 -2 -4q-38 -30 -38 -62q0 -45 68.5 -83t186.5 -60t257 -22t257 22t186.5 60t68.5 83q0 35 -45 68zM515 -161q-121 0 -223 18t-161.5 49.5t-59.5 68.5q0 27 33 51.5t89.5 42.5t134.5 29.5t164 12.5v-72q-11 -7 -19.5 -17
t-13 -22.5t-4.5 -26.5q0 -32 22.5 -54.5t55 -22.5t55 22.5t22.5 54.5q0 27 -16.5 48t-42.5 27v63q84 -2 159.5 -13.5t130 -29.5t86 -42t31.5 -51q0 -53 -118 -92q-132 -44 -325 -44z" />
    <glyph glyph-name="uniE617" unicode="&#xe617;" 
d="M733 788h-442q-26 0 -48 -12.5t-34.5 -34.5t-12.5 -48v-822q0 -26 12.5 -48t34.5 -34.5t48 -12.5h442q20 0 37.5 7.5t30 20.5t20 30.5t7.5 36.5v822q0 19 -7.5 37t-20 30.5t-30 20t-37.5 7.5zM512 -161q-26 0 -44.5 18.5t-18.5 45.5q0 17 8.5 31.5t23 23t31.5 8.5
q26 0 44.5 -18.5t18.5 -44.5q0 -18 -8.5 -32.5t-23 -23t-31.5 -8.5zM765 29h-506v633h506v-633z" />
    <glyph glyph-name="uniE618" unicode="&#xe618;" 
d="M512 620q-181 0 -359 -201q-56 -64 -89 -119q4 -7 11.5 -18.5t32.5 -44.5t52 -63.5t68.5 -67.5t83 -63.5t95 -44.5t105.5 -18t105 17.5t96 46t82.5 62.5t69 68t51.5 62.5t33 45.5l11 18q-8 13 -22.5 34.5t-61.5 77t-96 97.5t-122.5 76.5t-145.5 34.5zM794 175
q-65 -65 -130 -101q-78 -43 -152 -43t-152 43q-65 36 -130 101q-57 56 -105 125q47 68 103 124q65 65 131 102q78 43 153 43q74 0 152 -43q33 -18 65.5 -43t64.5 -57q23 -23 44.5 -48t35 -43t25.5 -35q-20 -28 -46 -60.5t-59 -64.5zM512 459q-66 0 -112.5 -46.5
t-46.5 -112.5t46.5 -112.5t112.5 -46.5q43 0 79.5 21.5t58 58t21.5 79.5q0 26 -8 50t-23 43.5t-34.5 34.5t-43.5 23t-50 8zM512 193q-29 0 -54 14t-39 39t-14 54q0 44 31.5 75.5t75.5 31.5q29 0 54 -14t39 -39t14 -54q0 -15 -3.5 -28.5t-10.5 -25.5t-17 -22t-22 -17
t-25.5 -10.5t-28.5 -3.5z" />
    <glyph glyph-name="uniE619" unicode="&#xe619;" 
d="M293 760h402q17 0 33.5 -3t33.5 -9.5t32 -18t25 -27.5q8 -13 14 -29t9 -32t5 -36t2.5 -37.5t0.5 -40.5v-27h-48v27v11q0 91 -16 118q-14 21 -36.5 35t-43.5 14h-419q-20 0 -42 -13t-35 -34l-2 -2q-21 -34 -21 -129v-454q0 -38 4.5 -70.5t16.5 -51.5q1 -1 1 -2v0
q14 -22 36.5 -36.5t42.5 -14.5h413q20 0 41 15t35 37l1 1v-1q24 39 24 123v27h48v-27q0 -112 -35 -168l-25 31l25 -31l-1 -1q-20 -31 -52.5 -47.5t-66.5 -16.5h-402q-34 0 -67.5 16t-53.5 47l27 30l-27 -30l-1 3q-33 54 -33 167v454q0 118 33 171l1 2h1q20 31 53 45.5
t67 14.5v0zM320 517q-12 0 -20 -10.5t-8 -25.5q0 -9 4 -17.5t10 -13t14 -4.5h325q7 0 13.5 4.5t10 13t3.5 17.5q0 15 -8 25.5t-19 10.5h-325v0zM317 334q-12 0 -20 -10.5t-8 -25.5t8 -25.5t20 -10.5h231q11 0 19 10.5t8 25.5t-8 25.5t-19 10.5h-231v0zM318 148
q-7 0 -13.5 -5t-10 -13.5t-3.5 -18t3.5 -18t10 -13t13.5 -4.5h135q3 0 6.5 1t6.5 3.5t5.5 5.5t4.5 7t3 9t1 10q0 7 -2 13.5t-6 11.5t-9 8t-10 3h-135v0zM638 209l292 269q4 2 11.5 3.5t24.5 -1.5t26.5 -14.5t11.5 -27t-1 -25.5l-3 -10l-292 -270zM623 195l70 -76l-118 -38z
" />
    <glyph glyph-name="uniE61A" unicode="&#xe61a;" horiz-adv-x="1030" 
d="M498 651v-702l-279 171l-12 7h-13h-100q-7 0 -14 4t-10.5 10.5t-3.5 14.5v288q0 8 3.5 14.5t10.5 10.5t14 4h100h13l12 7zM507 713l-313 -192h-100q-15 0 -29.5 -6t-24.5 -16.5t-16 -24.5t-6 -30v-288q0 -32 22.5 -54.5t53.5 -22.5h100l313 -192q16 0 27.5 11.5
t11.5 27.5v748q0 16 -11.5 27.5t-27.5 11.5zM857 -85q-5 0 -9.5 2t-7.5 5q-2 2 -3.5 4t-2 4t-1 4.5t-0.5 4.5t0.5 4.5t1 4.5t2 4t3.5 4q93 93 126 218.5t0 251t-126 218.5q-4 4 -5.5 8t-1.5 9t1.5 9.5t5.5 7.5q14 15 31 2q2 -1 3 -2q76 -77 116 -177t40 -201t-40 -201
t-116 -177q-7 -7 -17 -7zM712 101q-4 0 -8.5 2t-8 5.5t-5.5 8t-2 9t2 9t5 7.5q43 43 58 100.5t0 115t-58 100.5q-3 3 -5 7.5t-2 9t2 9t5 8.5q7 7 17 7t17 -7q80 -80 80 -192q0 -36 -9.5 -70.5t-27 -65t-43.5 -56.5q-7 -6 -17 -7z" />
    <glyph glyph-name="uniE61B" unicode="&#xe61b;" 
d="M959 457h-14v102q0 17 -8.5 32t-23.5 23.5t-32 8.5h-400v58q0 27 -18.5 45.5t-45.5 18.5h-352q-17 0 -32 -8.5t-23.5 -23.5t-8.5 -32v-762q0 -17 8.5 -32t23.5 -23.5t32 -8.5h816q27 0 45.5 18.5t18.5 45.5l78 474q0 13 -5 25t-13.5 20.5t-20.5 13.5t-25 5zM49 649
q0 27 10.5 37.5t37.5 10.5h288q13 0 22 -2.5t15 -8.5t8.5 -15t2.5 -22v-74h2h46h368q18 0 28.5 -4.5t15 -15t4.5 -28.5v-70h-754q-17 0 -32 -8.5t-23.5 -23.5t-8.5 -32l-30 -195v451zM897 -49q0 -11 -1.5 -18.5t-5 -13.5t-9.5 -9.5t-13.5 -5t-18.5 -1.5h-752q-26 0 -37 10.5
t-11 37.5l78 410q0 27 11 37.5t37 10.5h752q27 0 37.5 -10.5t10.5 -37.5z" />
    <glyph glyph-name="uniE61C" unicode="&#xe61c;" 
d="M1024 418v280q0 47 -33.5 80.5t-80.5 33.5h-597q-47 0 -80.5 -33.5t-33.5 -80.5v-170h-85q-47 0 -80.5 -33.5t-33.5 -80.5v-512q0 -47 33.5 -80.5t80.5 -33.5h199h597q47 0 80.5 33.5t33.5 80.5v512v2v2zM967 512v-96v-514q0 -24 -16.5 -40.5t-40.5 -16.5h-597h-99h-100
q-24 0 -40.5 16.5t-16.5 40.5v512q0 15 7.5 28t20.5 21t29 8h85v-541h57v541v57v170q0 16 7.5 29t20.5 20.5t29 7.5h597q24 0 40.5 -16.5t16.5 -40.5v-186zM797 557h-370q-18 0 -30.5 -12.5t-12.5 -30.5q0 -12 6 -21.5t16 -15.5t21 -6h370q11 0 21 6t16 15.5t6 21.5t-6 21.5
t-16 15.5t-21 6zM797 371h-370q-18 0 -30.5 -12.5t-12.5 -30.5q0 -9 3.5 -16.5t9.5 -13.5t13.5 -9.5t16.5 -3.5h370q18 0 30.5 12.5t12.5 30.5q0 12 -6 21.5t-16 15.5t-21 6zM797 186h-370q-11 0 -21 -6t-16 -15.5t-6 -21.5q0 -18 12.5 -30.5t30.5 -12.5h370q18 0 30.5 12.5
t12.5 30.5q0 29 -27 40q-9 3 -16 3z" />
    <glyph glyph-name="uniE61D" unicode="&#xe61d;" 
d="M509 99h6q10 0 17.5 7.5t7.5 17.5v236q0 7 -3.5 12.5t-9.5 9t-12 3.5h-6q-10 0 -17.5 -7.5t-7.5 -17.5v-236q0 -10 7.5 -17.5t17.5 -7.5zM605 99h6q10 0 17.5 7.5t7.5 17.5v236q0 7 -3.5 12.5t-9 9t-12.5 3.5h-6q-10 0 -17.5 -7.5t-7.5 -17.5v-236q0 -5 2 -9.5t5.5 -8
t8 -5.5t9.5 -2zM413 99h6q10 0 17.5 7.5t7.5 17.5v236q0 10 -7.5 17.5t-17.5 7.5h-6q-10 0 -17.5 -7.5t-7.5 -17.5v-236q0 -2 0.5 -4.5t1.5 -5t2 -4.5l4 -4q1 -2 3 -3t4.5 -2t5 -1.5t4.5 -0.5zM783 483h-82l-24 67q-9 16 -24.5 26.5t-31.5 10.5h-218q-8 0 -16.5 -3t-16 -8
t-13.5 -12t-10 -14l-24 -67h-82q-11 0 -18.5 -7.5t-7.5 -17.5v-11q0 -10 7.5 -17.5t18.5 -7.5h52v-358q0 -21 15 -36t36 -15h336q21 0 36 15t15 36v358h52q11 0 18.5 7.5t7.5 17.5v11q0 2 -0.5 4t-1 4.5t-2 4t-3 3.5t-3 3.5t-3.5 2.5l-4 2h-4q-2 1 -5 1zM404 536h216
q2 0 5 -2.5t5 -4.5l16 -46h-268l16 46zM680 64h-336v358h336v-358zM512 792q-100 0 -191 -39t-157 -105t-105 -157t-39 -191t39 -191t105 -157t157 -105t191 -39t191 39t157 105t105 157t39 191t-39 191t-105 157t-157 105t-191 39zM823 -11q-61 -61 -140 -95
q-82 -34 -171.5 -34t-171.5 34q-39 17 -74 40.5t-66 54.5q-60 61 -94 140q-35 82 -35 171.5t35 171.5q34 79 94.5 139.5t139.5 94.5q82 35 171.5 35t171.5 -35q79 -34 140 -94q31 -31 54.5 -66t40.5 -74q34 -82 34 -171.5t-34 -171.5q-34 -79 -95 -140z" />
    <glyph glyph-name="uniE61E" unicode="&#xe61e;" 
d="M512 812q-139 0 -257 -68.5t-186.5 -186.5t-68.5 -257t68.5 -257t186.5 -186.5t257 -68.5t257 68.5t186.5 186.5t68.5 257t-68.5 257t-186.5 186.5t-257 68.5zM423 -44l-300 309l77 63l173 -138q45 54 99.5 110.5t150.5 137.5t197 143l18 -43q-181 -168 -325 -406
q-61 -102 -90 -176z" />
    <glyph glyph-name="uniE61F" unicode="&#xe61f;" 
d="M512 764q-94 0 -180 -36.5t-148.5 -99t-99 -148.5t-36.5 -180t36.5 -180t99 -148.5t148.5 -99t180 -36.5t180 36.5t148.5 99t99 148.5t36.5 180q0 54 -12 106.5t-35 98t-54.5 86t-72 72t-86 54.5t-98 35t-106.5 12zM418 52l-187 187l47 47l140 -140l328 328l47 -47z" />
    <glyph glyph-name="uniE620" unicode="&#xe620;" 
d="M960 0q0 -43 -64 -64q-175 -49 -352 -95v799l352 96q26 0 45 -19t19 -45v-672zM480 -160l-352 96q-64 18 -64 64v672q0 26 19 45t45 19l352 -96v-800zM896 800q-186 -51 -354 -96h-20h-23h-20l-351 96q-53 0 -90.5 -37.5t-37.5 -90.5v-672q0 -86 128 -128
q173 -48 351 -96h65l352 96q55 14 91.5 46.5t36.5 81.5v672q0 53 -37.5 90.5t-90.5 37.5z" />
    <glyph glyph-name="uniE621" unicode="&#xe621;" 
d="M981 288h-256q-17 0 -29.5 -8.5t-12.5 -20t12.5 -20t29.5 -8.5h256q18 0 30.5 8.5t12.5 20t-12.5 20t-30.5 8.5zM981 117h-256q-11 0 -21 -3.5t-15.5 -10t-5.5 -14.5q0 -12 12.5 -20.5t29.5 -8.5h256q18 0 30.5 8.5t12.5 20.5t-12.5 20t-30.5 8zM981 -53h-256
q-17 0 -29.5 -8.5t-12.5 -20.5t12.5 -20t29.5 -8h256q18 0 30.5 8t12.5 20q0 8 -5.5 14.5t-15.5 10.5t-22 4zM984 459h-318q-17 0 -28.5 -8.5t-11.5 -20.5q0 -6 3 -11t8.5 -9t12.5 -6t16 -2h318q17 0 28.5 8t11.5 20q0 8 -5.5 14.5t-14.5 10.5t-20 4zM666 572h318
q17 0 28.5 8.5t11.5 20.5t-11.5 20t-28.5 8h-318q-11 0 -20.5 -3.5t-14.5 -10t-5 -14.5q0 -12 11.5 -20.5t28.5 -8.5zM569 -16q0 -31 -11 -59t-30 -48t-44.5 -32t-54.5 -12h-232q-38 0 -70.5 20t-51 55t-18.5 76v101q0 53 30.5 93.5t76.5 52.5q67 -63 149 -63q27 0 53.5 8
t50 21.5t45.5 33.5q18 -5 34.5 -14.5t29.5 -23.5t22.5 -30.5t15 -36.5t5.5 -41v-101zM114 487q0 70 26.5 129t72.5 93t100 34q82 0 140.5 -75t58.5 -181t-58.5 -181t-141 -75t-140.5 75t-58 181zM569 499q0 78 -34 147.5t-93.5 111.5t-128.5 42t-128.5 -42t-93.5 -111.5
t-34 -147.5q0 -72 16.5 -132t40.5 -79q-31 -10 -54 -30t-35.5 -45t-18.5 -49t-6 -47v-160q0 -72 50.5 -126.5t120.5 -54.5h284q70 0 120.5 54.5t50.5 126.5v160q0 23 -6 47t-18.5 49t-36 45t-53.5 30q18 22 30.5 52.5t19.5 71t7 87.5z" />
    <glyph glyph-name="uniE622" unicode="&#xe622;" 
d="M511 619l-447 127v-772l447 -127l448 127v772zM477 -72l-344 97v630l344 -97v-630zM890 25l-344 -97v630l344 97v-630zM408 451l-206 68v-68l206 -69v69zM408 292l-206 68v-68l206 -69v69zM408 133l-206 68v-68l206 -68v68zM817 519l-206 -68v-69l206 69v68zM817 360
l-206 -68v-69l206 69v68zM817 201l-206 -68v-68l206 68v68z" />
    <glyph glyph-name="uniE623" unicode="&#xe623;" 
d="M607 262h29q1 1 1 3l1 2v3l22 84h-53v-92zM765 391l-233 344q-8 11 -20 11q-13 0 -21 -11l-233 -345q-42 -68 -42 -148q0 -77 39.5 -142.5t108 -104t148.5 -38.5q123 0 209.5 83.5t86.5 201.5q0 80 -43 149zM687 361l-25 -98q0 -4 -2 -9t-4.5 -8t-5 -5t-3.5 -3l-2 -1h-44
q-7 -23 -24.5 -41t-48.5 -21v-80h38q4 0 7 -3t3 -7v-12q0 -9 -10 -9h-99q-9 1 -10 9v12q0 3 1.5 5.5t3.5 3.5t5 1h37v79q-58 6 -75 63h-42q-16 9 -17 27l-25 97q1 1 -0.5 4t5 7.5t20.5 6.5h55v39h181v-39h56q14 -2 20.5 -6.5t5.5 -7.5zM394 270l1 -3v-2q0 -2 1 -3h29v92h-53
zM394 270z" />
    <glyph glyph-name="uniE624" unicode="&#xe624;" horiz-adv-x="1286" 
d="M1154 -64q0 -61 -38 -104.5t-92 -43.5h-764q-26 0 -50 11.5t-41.5 31.5t-27.5 47.5t-10 57.5v728q0 61 37.5 104.5t91.5 43.5h764q54 0 92 -43.5t38 -104.5v-728zM751 749h-128l43 -171h128zM537 749l-150 4l39 -177l154 2zM195 749v-171l133 -2l-48 173h-85v0zM1092 459
q0 19 -9 35t-24 25.5t-32 9.5h-766q-27 0 -46 -20.5t-19 -49.5v-529q0 -29 19 -49.5t46 -20.5h766q8 0 16.5 2.5t16 7t13.5 11t10 14t6.5 17t2.5 18.5v529zM1051 578v86l-43 85h-128l42 -171h129zM833 235l-321 161q-19 9 -20 -20q0 -9 1 -30l1 -25v-256q0 -9 -1 -24
q-1 -10 -1 -14t1.5 -8t6 -3.5t12.5 4.5l321 160q23 12 23 28t-23 27zM833 235z" />
    <glyph glyph-name="uniE625" unicode="&#xe625;" 
d="M194 39l-69 -14l-124 -189l23 -24l23 -23l189 124l15 70l155 155l-56 57zM872 750q4 5 11 5t12 -5t5 -12t-5 -12l-272 -272l42 -43l273 272q5 5 12 5t12 -4.5t5 -11.5t-5 -12l-273 -273l38 -38l1 1l1 1l29 29l231 230q23 23 31 53.5t0 61t-31 52.5q-34 35 -83 35t-84 -35
l-229 -229l-31 -30q0 -1 -0.5 -1.5t-0.5 -1.5l38 -38zM479 529q6 32 3 65q-4 41 -21 79t-48 68q-52 52 -124 66t-137 -14l140 -140q8 -8 12 -18t4 -20.5t-4 -20.5t-12 -18l-58 -58q-10 -11 -24 -14.5t-28 0t-24 14.5l-137 137q-25 -63 -10.5 -132t65.5 -119q54 -55 131 -67
q35 -5 69 -1l506 -506q41 -40 99 -40t99 40.5t41 98.5t-41 99zM937 -126q-21 -22 -51.5 -22t-51.5 21q-21 22 -21 52t21 51.5t51.5 21.5t51.5 -21.5t21 -51.5t-21 -51z" />
    <glyph glyph-name="uniE626" unicode="&#xe626;" 
d="M165 163l-1 -2q-11 -44 -3 -123t25 -141l-12 -20q-6 -12 -7.5 -21t3 -16.5t15.5 -14.5q10 -7 18.5 -5.5t14 7t12.5 17.5l9 16q40 9 87.5 29t89 44t62.5 45l1 2zM811 558q28 59 5 125t-85 102q-63 37 -130.5 24t-104.5 -67zM466 690l-272 -475l314 -184l272 476z" />
    <glyph glyph-name="uniE627" unicode="&#xe627;" 
d="M819 -212h-614q-85 0 -145 60t-60 145v614q0 85 60 145t145 60h614q85 0 145 -60t60 -145v-614q0 -56 -27.5 -103t-74.5 -74.5t-103 -27.5zM922 607q0 14 -4 27.5t-10.5 24.5t-16 20.5t-20.5 16t-24.5 10.5t-27.5 4h-614q-43 0 -73 -30t-30 -73v-614q0 -28 14 -51.5
t37.5 -37.5t51.5 -14h614q14 0 27.5 4t24.5 10.5t20.5 16t16 20.5t10.5 24.5t4 27.5v614zM409 504l308 -204l-308 -204v408z" />
    <glyph glyph-name="uniE628" unicode="&#xe628;" 
d="M916 337q-85 -47 -169 -95q0 7 0.5 23.5t0.5 26.5t-1 25.5t-4.5 26t-10.5 21.5t-17 17q-12 8 -29.5 11.5t-29 4t-34.5 0t-29 -0.5h-25q17 4 31.5 15.5t23 28t11.5 34.5q1 3 0 8q1 2 0.5 4t-0.5 4q-5 34 -29 56t-59 24q-36 2 -61 -25t-27 -63q-1 -16 4.5 -31t16 -26
t24 -18.5t28.5 -10.5h-162q25 12 44.5 33t31.5 47.5t14 54.5q1 4 1 7q0 4 -1 7q-5 63 -48 104.5t-107 44.5q-21 1 -41.5 -4.5t-37 -16t-30.5 -25.5t-24 -32.5t-15.5 -37.5t-6.5 -40q-2 -32 11 -61t35.5 -49t51.5 -32h-70q-46 0 -73.5 -16.5t-32.5 -59.5q-2 -17 -2.5 -38.5
t0 -38t1.5 -39.5t1 -38v-135q0 -5 -1.5 -22.5t-1 -30.5t4.5 -23q5 -14 12.5 -24.5t18.5 -17t20 -10t24.5 -5t24 -1.5t27 0.5t25.5 0.5h439q4 -1 7 0h4q2 0 4 1q22 4 36.5 14.5t21 28.5t8.5 34.5t2 40.5v23q81 -46 169 -95q7 -4 13 -4t11 3q14 6 14 23v347q0 10 -6 17
t-14.5 8t-17.5 -3zM508 483q-1 29 27 35q28 7 43 -16q5 -8 6 -19q-2 -23 -20 -32.5t-36 0t-20 32.5zM199 539q-3 64 48 90.5t105 0t57 -90.5q-2 -38 -23.5 -64.5t-51.5 -32.5t-60 0t-51.5 32.5t-23.5 64.5zM903 11q-24 13 -72 40t-72 41v99q24 14 72 41t72 40v-261zM671 -51
h-347h-167q-14 0 -23 7.5t-11.5 22t-3 26t0.5 29t1 22.5v221v44q0 6 2 11t6.5 7.5t8.5 4t10 2t10 1t10.5 0t8.5 -0.5h416h78q11 0 17.5 -9t8 -24t1.5 -28t-1 -28t-1 -17v-176q0 -4 1 -15.5t1.5 -23t0 -25.5t-3 -24t-9 -18t-15.5 -9z" />
    <glyph glyph-name="uniE629" unicode="&#xe629;" horiz-adv-x="1177" 
d="M887 -72q-10 0 -18.5 5t-13.5 13t-5 18t5 18.5t13.5 13.5t18.5 5h10q60 0 109 40.5t74.5 101t25.5 123.5q0 102 -76.5 176t-180.5 76h-26l-8 26q-60 194 -266 194q-45 0 -85.5 -10.5t-73.5 -30.5t-59.5 -48.5t-44.5 -63t-27.5 -75.5t-9.5 -86l3 -34l-33 -6
q-20 -3 -39 -12t-35 -22.5t-29.5 -31t-23 -37t-15 -42t-5.5 -45.5q0 -78 52.5 -135.5t123.5 -57.5h33q15 0 26 -10.5t11 -26.5q0 -7 -3 -14t-8 -11.5t-12 -7.5t-14 -3h-33q-101 0 -174.5 79t-73.5 187q0 88 49.5 159.5t126.5 95.5q10 157 113 260t260 103q122 0 205 -58.5
t123 -163.5q126 -14 212.5 -106t86.5 -218q0 -60 -19.5 -119t-55.5 -107.5t-92 -79t-122 -32.5v0zM588 -133l118 130q7 8 18 8t19 -8l9 -7q17 -17 0 -35l-136 -149v0l-10 -10q-7 -8 -18 -8t-19 8l-9 10h-1l-132 147q-8 8 -8 19.5t8 19.5l9 5q8 8 18.5 7t18.5 -9zM588 315
q15 0 26 -11t11 -26v-404q0 -16 -11 -26.5t-26 -10.5q-10 0 -18.5 5t-13.5 13.5t-5 18.5v404q0 15 11 26t26 11zM588 315z" />
    <glyph glyph-name="uniE62A" unicode="&#xe62a;" 
d="M667 -84h-568q-41 0 -69.5 28.5t-28.5 68.5v701q0 27 13 49.5t35.5 35.5t49.5 13h701q10 0 19.5 -2t18 -5.5t16.5 -9t14.5 -12t12 -14.5t9 -16.5t5.5 -18.5t2 -20v-573h-47v74l-234 226l-241 -240l-147 148l-179 -180v-156q0 -20 14.5 -35t35.5 -15h568v-47zM99 764
q-21 0 -35.5 -14.5t-14.5 -35.5v-477l179 179l147 -148l240 240l235 -227v433q0 21 -14.5 35.5t-35.5 14.5h-701zM375 451q-40 0 -68.5 28.5t-28.5 69t28.5 69t68.5 28.5q20 0 38 -8t31.5 -21t21 -31t7.5 -38q0 -26 -13 -48.5t-35.5 -35.5t-49.5 -13zM375 598
q-13 0 -24.5 -6.5t-18.5 -18t-7 -25.5q0 -10 4 -19t11 -16t16 -11t19 -4q21 0 35.5 15t14.5 35.5t-14.5 35t-35.5 14.5zM724 -39h299v-47h-299v47zM850 87h47v-299h-47v299zM850 87z" />
    <glyph glyph-name="uniE62B" unicode="&#xe62b;" 
d="M513 471q-54 0 -99.5 -26.5t-72 -72t-26.5 -99.5q0 -82 58 -139.5t140 -57.5t140 57.5t58 139.5t-58 140t-140 58zM948 590h-236v45q0 24 -17 41t-41 17h-281q-24 0 -41 -17t-17 -41v-45h-237q-7 0 -13.5 -1t-12 -3.5t-10.5 -5.5t-9 -7t-7 -8.5t-4.5 -9.5t-1.5 -10v-593
q0 -19 17 -32t41 -13h870q24 0 41 13t17 32v593q0 18 -17 31.5t-41 13.5zM513 4q-111 0 -190 79t-79 190.5t79 190.5t190 79q73 0 135 -36t98 -98t36 -136q0 -115 -84 -195q-78 -73 -185 -74z" />
    <glyph glyph-name="uniE62C" unicode="&#xe62c;" 
d="M512 753q-55 0 -107 -14.5t-96 -40t-81.5 -63t-63.5 -81.5t-40.5 -96.5t-14.5 -106.5q0 -110 54 -202.5t147 -146.5t202 -54t202 54t147 146.5t54 202.5q0 82 -32 156.5t-86 128.5t-128.5 85.5t-156.5 31.5zM755 521l-36 -138q-1 -11 -7 -20.5t-12 -13.5l-5 -4h-62
q-28 -80 -104 -88v-113h53q6 0 10 -4t4 -10v-17q0 -5 -4 -9t-10 -4h-140q-6 0 -10 3.5t-4 9.5v17q0 6 4 10t10 4h53v113q-47 5 -72 31t-35 57h-58q-1 1 -2.5 2t-5.5 4.5t-7.5 7.5t-6 10.5t-3.5 13.5l-36 138q2 1 0 5.5t7.5 11t28.5 8.5h78v56h257v-56h79q19 -2 28 -8.5
t8 -11.5v-5z" />
    <glyph glyph-name="uniE62D" unicode="&#xe62d;" horiz-adv-x="1261" 
d="M236 418l-236 -630h1024l236 630h-1024zM1024 497v157h-512l-158 158h-354v-1024l158 709h866zM1024 497z" />
    <glyph glyph-name="uniE62E" unicode="&#xe62e;" 
d="M564 159l-152 -42l43 151zM920 520l-37 -36l-109 109l37 37q1 2 4.5 4t12.5 2.5t16 -6.5l8 -8l8 -8q4 -4 9 -9.5t10 -10t10 -9.5l9 -9l9 -9l7 -7q5 -5 8.5 -9.5t4 -8.5t0.5 -7.5t-1.5 -6t-2.5 -4.5t-2 -3zM861 459l-275 -275l-109 109l275 275zM614 131l-252 -73l73 252
l219 219q-66 39 -141 39q-80 0 -146.5 -41.5t-102.5 -109.5q-97 -10 -156 -88q-46 -61 -46 -137q0 -92 66 -158t158 -66h488q51 0 94.5 25t68.5 68.5t25 94.5q0 65 -39.5 115t-100.5 64z" />
    <glyph glyph-name="uniE62F" unicode="&#xe62f;" 
d="M128 -96h896v-128h-1024v1024h128v-896zM288 -32q-40 0 -68 28t-28 68t28 68t68 28h4h4l104 172q-16 24 -16 52q0 40 28 68t68 28t68 -28t28 -68q0 -14 -4 -27.5t-12 -24.5l104 -172h8h6l171 298q-17 24 -17 54q0 40 28 68t68 28t68 -28t28 -68t-28 -68t-68 -28h-6
l-171 -298q17 -24 17 -54q0 -40 -28 -68t-68 -28t-68 28t-28 68q0 29 16 52l-104 172h-8h-8l-104 -172q5 -7 8.5 -15.5t5.5 -17.5t2 -19q0 -40 -28 -68t-68 -28z" />
    <glyph glyph-name="uniE630" unicode="&#xe630;" 
d="M959 -138q-20 0 -38 9l-5 2l-3 4q-1 0 -3 2l-150 148q-30 27 -29 59q1 28 22 48l168 167l7 2q17 7 31 7q28 0 42 -21q4 -6 6 -13t2 -12v-371l-5 -7q-15 -24 -45 -24zM796 86v-1h-1q2 -5 9 -12q31 -29 141 -138v299zM632 -138h-543q-23 0 -42 14t-29 40l-3 6v294l5 7
q27 44 69 44h543q27 0 46.5 -18.5t19.5 -45.5v-278q0 -26 -19.5 -44.5t-46.5 -18.5zM79 -64q2 -4 4 -6t3.5 -3t2.5 -1h543h2v277h-545q-1 0 -2.5 -1t-3.5 -2.5t-4 -3.5v-260zM531 365q-71 0 -121.5 50t-50.5 121q0 46 23 85.5t62.5 62t86.5 22.5q71 0 121 -50t50 -120
q0 -35 -13.5 -66.5t-36.5 -54.5t-55 -36.5t-66 -13.5zM531 637q-17 0 -32.5 -5t-28 -14.5t-22 -22t-14.5 -28t-5 -31.5q0 -42 30 -72t72 -30t72 30t30 72t-30 71.5t-72 29.5zM189 350q-53 0 -90.5 37.5t-37.5 90.5t37.5 90.5t90.5 37.5q35 0 64.5 -17t46.5 -46.5t17 -64.5
q0 -53 -37.5 -90.5t-90.5 -37.5zM189 539q-25 0 -43 -18t-18 -43t18 -43t43 -18t43 18t18 43q0 17 -8 31t-22 22t-31 8z" />
    <glyph glyph-name="uniE631" unicode="&#xe631;" 
d="M304 156h294q6 25 18 48h-312v-48zM736 380h-432v-48h432v48zM224 12v656h592v-353q25 -2 48 -9v378q0 13 -9.5 22.5t-22.5 9.5h-624q-13 0 -22.5 -9.5t-9.5 -22.5v-688q0 -13 9.5 -22.5t22.5 -9.5h442q-21 22 -34 48h-392zM736 556h-432v-48h432v48zM941 33q19 35 19 75
q0 66 -47 113t-113 47t-113 -47t-47 -113t47 -113t113 -47q32 0 61 12t51 34l58 -58l34 34zM800 -4q-46 0 -79 33t-33 79t33 79t79 33t79 -33t33 -79t-33 -79t-79 -33z" />
    <glyph glyph-name="uniE632" unicode="&#xe632;" 
d="M512 812q-139 0 -257 -68.5t-186.5 -186.5t-68.5 -257t68.5 -257t186.5 -186.5t257 -68.5t257 68.5t186.5 186.5t68.5 257t-68.5 257t-186.5 186.5t-257 68.5zM512 -116q-172 0 -294 122t-122 294t122 294t294 122t294 -122t122 -294t-122 -294t-294 -122zM730 478
q-20 0 -35 -16l-249 -249l-123 124v-1q-14 15 -34 15t-34 -14t-14 -34t14 -34l155 -155l6 -6l1 -1q6 -5 13.5 -7.5t16.5 -2.5q23 0 38 19l278 278v1q15 14 15 35q0 20 -14 34t-34 14z" />
    <glyph glyph-name="uniE633" unicode="&#xe633;" horiz-adv-x="1025" 
d="M512 341q28 0 47 19q19 20 19 47q0 13 -5 25t-14 22q-21 17 -47 17q-28 0 -47 -19.5t-19 -46.5q0 -14 5 -26t14 -21q21 -17 47 -17zM747 341q27 0 47 19q18 20 19 47q0 13 -5 25t-14 22q-21 17 -47 17q-28 0 -47 -20q-17 -17 -17 -44q0 -13 4.5 -25.5t14.5 -21.5
q16 -19 45 -19zM277 341q13 0 25.5 4.5t21.5 14.5q19 19 19 47q0 13 -4.5 25t-14.5 22q-20 17 -47 17t-46.5 -19.5t-19.5 -46.5q0 -14 5 -26t14 -21q21 -17 47 -17zM945 791h-866q-21 0 -39 -10.5t-29 -28.5t-11 -40v-610q0 -22 11 -40.5t29 -28.5t39 -10h220l198 -205
q3 -3 6.5 -5t8.5 -2q9 0 15 7l198 205h220q33 0 56 23t23 56v610q2 33 -21.5 56t-57.5 23zM896 151h-171q-42 0 -72 -30l-141 -141l-139 141q-16 14 -35 22t-39 8h-171v512h768v-512z" />
    <glyph glyph-name="uniE634" unicode="&#xe634;" 
d="M940 727q-7 8 -18 8h-412h-413q-11 0 -18 -8q-8 -8 -8 -19v-815q0 -3 1 -6.5t2.5 -6.5t4.5 -6q8 -8 18 -8h413h412q10 0 18 8t8 19v815q0 11 -8 19zM935 -107q0 -5 -4 -9q-3 -4 -9 -4h-412h-413q-5 0 -9 4t-4 9v815q0 6 4 10t9 4h413h412q2 0 4.5 -1t4.5 -3q4 -4 4 -10
v-815zM646 204q11 22 16.5 46.5t5.5 50t-6 50t-18 47.5q-8 14 -19 27t-25 24.5t-30 19.5l-12 -24q40 -21 63 -60q7 -13 11.5 -27t7 -28.5t2.5 -29.5q0 -44 -20 -84q-22 -41 -58 -62l12 -24q23 13 40.5 31.5t29.5 42.5zM709 484q-59 79 -159 97l-4 -27q88 -15 141 -86
q45 -59 52 -137t-25 -150q-22 -46 -58.5 -82t-88.5 -57l11 -25q111 45 160 153q35 77 28 163q-3 28 -10 54.5t-19 51t-28 45.5zM518 345q-6 0 -11 -1t-9 -3v233l-233 -227v-95l233 -234v241q9 -5 20 -5q9 0 17.5 3.5t14.5 10t10 15t4 17.5t-4 17.5t-10 14.5t-14.5 9.5
t-17.5 3.5z" />
    <glyph glyph-name="uniE635" unicode="&#xe635;" 
d="M436 471q-4 -4 -4 -11v-1v-354v-1v0v-1v-1h1q1 -4 3 -7l6 -3h1h1v-1h1h1v0v0h1h1l1 1h1v0h1h1v1l4 2v0l176 177q1 0 2 1q2 2 2.5 3.5t1 3.5t0.5 3.5t-0.5 3.5t-1 3.5t-2.5 2.5q0 1 -0.5 1.5t-1.5 0.5l-176 176q-10 10 -20 0zM512 670q-53 0 -103 -13.5t-92.5 -38.5
t-78 -61t-60.5 -78.5t-39 -92.5t-14 -103q0 -105 51.5 -194t141 -141t194.5 -52t194.5 52t141 141t51.5 194t-51.5 194.5t-141 141t-194.5 51.5zM512 -50q-91 0 -167.5 44.5t-121.5 121.5t-45 167q0 68 26.5 130t71 106.5t106.5 71t130 26.5q54 0 105 -17t92 -47.5t72 -71.5
t48 -92t17 -106q0 -90 -45 -167t-121.5 -121.5t-167.5 -44.5z" />
    <glyph glyph-name="uniE636" unicode="&#xe636;" 
d="M889 77h-768q-39 0 -67.5 28.5t-28.5 67.5v480q0 40 28.5 68t67.5 28h768q40 0 68 -28t28 -68v-480q0 -39 -28 -67.5t-68 -28.5zM121 685q-13 0 -22.5 -9t-9.5 -23v-480q0 -6 3 -12t7 -10.5t10 -7t12 -2.5h768q14 0 23 9.5t9 22.5v480q0 14 -9 23t-23 9h-768zM321 548z
M274 548q0 5 1.5 10.5t3.5 10t5.5 8.5t7.5 7t8.5 5.5t9.5 3.5t11 1q19 0 32.5 -13.5t13.5 -32.5q0 -5 -1.5 -10.5t-3.5 -10t-5.5 -8.5t-7.5 -7t-8.5 -5.5t-9.5 -3.5t-10 -1q-20 0 -33.5 13.5t-13.5 32.5zM160 239q-13 1 -23 9q-9 10 -9 23t9 23l161 159q6 6 14 8.5t16.5 0.5
t14.5 -9l162 -159q10 -10 10 -23t-9 -23q-6 -6 -14.5 -8t-16.5 0t-14 8l-140 138l-138 -138q-10 -9 -23 -9zM844 260q-12 0 -21 8l-226 200l-162 -145q-10 -9 -23.5 -8t-21.5 11q-6 6 -8 14.5t1 16.5t9 14l183 164q5 4 10.5 6t11 2t11 -2t10.5 -6l247 -219q10 -9 11 -22
t-8 -23q-3 -4 -7 -6.5t-8.5 -3.5t-8.5 -1zM413 347z" />
  </font>
</defs>
</svg>
